<?xml version="1.0" encoding="UTF-8" standalone="no"?>
<svg
   version="1.1"
   width="1024"
   height="1024"
   id="svg65"
   sodipodi:docname="e392471a-8c70-4bfa-93b7-305e01578110.svg"
   inkscape:version="1.4.2 (f4327f4, 2025-05-13)"
   xmlns:inkscape="http://www.inkscape.org/namespaces/inkscape"
   xmlns:sodipodi="http://sodipodi.sourceforge.net/DTD/sodipodi-0.dtd"
   xmlns="http://www.w3.org/2000/svg"
   xmlns:svg="http://www.w3.org/2000/svg">
  <defs
     id="defs65" />
  <sodipodi:namedview
     id="namedview65"
     pagecolor="#ffffff"
     bordercolor="#000000"
     borderopacity="0.25"
     inkscape:showpageshadow="2"
     inkscape:pageopacity="0.0"
     inkscape:pagecheckerboard="0"
     inkscape:deskcolor="#d1d1d1"
     inkscape:zoom="0.27863046"
     inkscape:cx="375.04874"
     inkscape:cy="181.24365"
     inkscape:window-width="1920"
     inkscape:window-height="1009"
     inkscape:window-x="-8"
     inkscape:window-y="-8"
     inkscape:window-maximized="1"
     inkscape:current-layer="svg65" />
  <path
     d="M0 0 C337.92 0 675.84 0 1024 0 C1024 337.92 1024 675.84 1024 1024 C686.08 1024 348.16 1024 0 1024 C0 686.08 0 348.16 0 0 Z "
     fill="#FEFEFE"
     transform="translate(0,0)"
     id="path1" />
  <g
     id="g65"
     transform="translate(-0.14932126,4.8716628)">
    <path
       d="m 251.02212,68.579061 c 0.91062,-0.0027 1.82126,-0.0055 2.75948,-0.0082 3.07309,-0.0082 6.1461,-0.0055 9.21921,-0.0041 2.21687,-0.0041 4.43373,-0.0082 6.6506,-0.01233 6.10906,-0.01096 12.2181,-0.0137 18.32717,-0.01452 6.582,-0.0027 13.164,-0.01233 19.74601,-0.02205 14.40035,-0.01863 28.8007,-0.02684 43.20106,-0.03287 8.98801,-0.0041 17.97603,-0.0096 26.96404,-0.01575 24.87463,-0.01671 49.74925,-0.03082 74.62388,-0.03547 2.38904,-4.52e-4 2.38904,-4.52e-4 4.82634,-9.03e-4 1.59656,-3.02e-4 3.19311,-6.03e-4 4.83804,-9.18e-4 3.23534,-6.03e-4 6.47067,-0.0012 9.70601,-0.0014 1.60484,-3.01e-4 3.20969,-6.02e-4 4.86317,-9.17e-4 26.00907,-0.0055 52.01808,-0.02931 78.02711,-0.06122 26.68931,-0.03246 53.37858,-0.04958 80.0679,-0.05109 14.99061,-0.0012 29.98117,-0.0096 44.97178,-0.03397 12.76414,-0.02109 25.5282,-0.02808 38.29236,-0.01684 6.51408,0.0055 13.02799,0.0041 19.54206,-0.0152 5.96282,-0.01739 11.92532,-0.01589 17.88813,8.08e-4 2.15764,0.0027 4.31529,-0.0014 6.4729,-0.0137 2.93348,-0.0152 5.86585,-0.0055 8.7993,0.01096 1.62919,-8.22e-4 3.25839,-0.0014 4.93696,-0.0027 6.47546,0.714798 11.92422,2.604629 16.90995,6.974593 0.6391,0.805054 1.2782,1.610108 1.93667,2.439567 0.99042,1.207587 0.99042,1.207587 2.00087,2.439567 2.91834,4.30895 3.14953,8.121796 3.20628,13.167169 0.0175,1.362748 0.0352,2.725495 0.0533,4.129535 0.0152,2.208423 0.0152,2.208423 0.0307,4.461448 0.011,1.51857 0.0221,3.03713 0.0336,4.60172 0.0189,3.2178 0.0337,6.43565 0.0444,9.65349 0.0236,4.90275 0.0837,9.80422 0.14411,14.70662 0.0138,3.12881 0.0255,6.25763 0.0348,9.38645 0.024,1.45842 0.0479,2.91683 0.0727,4.41944 -0.0289,9.96239 -1.3085,17.87517 -8.63255,25.26195 -1.2632,0.74415 -1.2632,0.74415 -2.55192,1.50334 -0.82447,0.52081 -1.64895,1.04163 -2.49841,1.57822 -5.1131,1.87026 -10.33207,2.18138 -15.73414,2.61612 0.30553,4.53999 0.66215,9.07466 1.02719,13.61022 0.12709,1.90274 0.12709,1.90274 0.25679,3.84392 1.52895,18.15624 10.94922,31.22474 23.02609,44.43382 24.56891,27.18056 41.23195,57.43032 40.92983,94.70502 0.008,2.16404 0.0188,4.32807 0.0323,6.49209 0.0284,5.8812 0.0147,11.76163 -0.007,17.64283 -0.0156,6.36826 0.008,12.73641 0.0273,19.10463 0.0304,12.45071 0.024,24.90113 0.004,37.35184 -0.0155,10.12749 -0.0175,20.25491 -0.01,30.38241 10e-4,1.44533 0.003,2.89067 0.003,4.3798 0.003,2.93688 0.004,5.87374 0.007,8.81061 0.0195,27.49765 -0.003,54.99515 -0.0397,82.49277 -0.0305,23.54925 -0.0253,47.09829 0.007,70.64754 0.0367,27.39765 0.0511,54.79517 0.03,82.19285 -0.003,2.9269 -0.004,5.8538 -0.007,8.78069 -0.001,1.43979 -0.003,2.87957 -0.003,4.363 -0.005,10.1029 0.004,20.20573 0.0201,30.30863 0.0193,12.33026 0.0138,24.66023 -0.0225,36.99045 -0.0179,6.28058 -0.0252,12.56066 -0.003,18.84123 0.13367,40.19338 -3.33285,75.3842 -29.66968,107.76464 -0.65499,0.86155 -1.30998,1.7231 -1.98483,2.61076 -14.6211,18.43347 -37.55076,31.36295 -59.64634,38.47668 -1.49992,0.48404 -2.99986,0.96809 -4.54524,1.46679 -18.67217,5.1725 -37.32286,4.78886 -56.57011,4.70761 -5.08442,-0.0153 -10.16874,10e-4 -15.25315,0.0137 -9.92838,0.019 -19.85652,0.008 -29.7849,-0.0123 -11.58622,-0.0233 -23.17239,-0.0186 -34.75862,-0.0137 -20.68478,0.008 -41.36944,-0.011 -62.05419,-0.0452 -20.0275,-0.0327 -40.05484,-0.0425 -60.08236,-0.0281 -21.86358,0.0156 -43.7271,0.0182 -65.59068,-0.001 -2.33519,-0.003 -4.67038,-0.004 -7.00557,-0.007 -1.14865,-10e-4 -2.29732,-0.003 -3.48078,-0.003 -8.05823,-0.007 -16.11641,-0.004 -24.17464,10e-4 -9.83067,0.007 -19.66118,-10e-4 -29.49181,-0.0286 -5.00666,-0.0137 -10.0131,-0.0205 -15.01975,-0.01 -38.53883,0.0749 -38.53883,0.0749 -55.10671,-4.67225 -1.61545,-0.44625 -1.61545,-0.44625 -3.26352,-0.90152 -28.64225,-8.64434 -52.50865,-28.17644 -69.32482,-52.51079 -1.15462,-1.61276 -1.15462,-1.61276 -2.33257,-3.25811 -4.83157,-7.31094 -7.94388,-15.20086 -11.02085,-23.36313 -0.40286,-1.06127 -0.80572,-2.12255 -1.22079,-3.21598 -5.53286,-15.32792 -6.37088,-30.30104 -6.32656,-46.45706 -0.004,-2.15367 -0.01,-4.30732 -0.0159,-6.46098 -0.014,-5.88372 -0.011,-11.76733 -0.005,-17.65107 0.003,-6.35883 -0.01,-12.71763 -0.0192,-19.07644 -0.0174,-12.44376 -0.0199,-24.88749 -0.0167,-37.33127 0.003,-10.11662 4e-5,-20.23323 -0.005,-30.34985 -8.2e-4,-1.44143 -0.001,-2.88286 -0.003,-4.36796 -0.001,-2.92851 -0.003,-5.85702 -0.005,-8.78552 -0.0149,-27.44372 -0.0123,-54.88742 -0.004,-82.33113 0.007,-25.09153 -0.008,-50.18298 -0.0344,-75.27451 -0.0266,-25.78431 -0.0378,-51.56859 -0.0327,-77.35292 0.003,-14.46784 -7.7e-4,-28.93564 -0.0201,-43.40347 -0.0163,-12.31508 -0.0182,-24.63007 -10e-4,-36.94516 0.008,-6.27924 0.01,-12.55829 -0.007,-18.83752 -0.0149,-5.75579 -0.011,-11.51124 0.008,-17.267 0.004,-2.07448 4.1e-4,-4.14898 -0.011,-6.22343 -0.082,-16.63344 2.21569,-31.49181 9.51655,-46.54649 0.4737,-0.9859 0.94739,-1.97181 1.43546,-2.9876 7.70954,-15.50632 18.67235,-28.51374 29.6105,-41.82104 4.71249,-5.76175 9.2629,-11.59321 13.55103,-17.67851 0.9357,-1.32764 1.87141,-2.65527 2.83546,-4.02314 5.60343,-9.50884 7.22719,-17.87971 7.522,-28.84681 0.0468,-1.1917 0.0936,-2.3834 0.14178,-3.6112 0.11176,-2.90443 0.20129,-5.8097 0.28622,-8.71503 -0.82129,-0.0661 -1.64256,-0.13217 -2.48872,-0.20029 -11.05102,-1.02964 -11.05102,-1.02964 -15.74384,-3.99406 -0.84212,-0.4961 -1.68427,-0.99219 -2.55191,-1.50333 -7.31752,-7.3802 -8.61461,-15.37473 -8.73794,-25.33026 0.0109,-1.47118 0.0222,-2.94237 0.0335,-4.45814 -0.005,-1.54252 -0.011,-3.08503 -0.0159,-4.67431 -0.004,-3.24714 0.007,-6.49434 0.0293,-9.74139 0.0293,-4.95664 2.2e-4,-9.91057 -0.0348,-14.86713 0.004,-3.16448 0.0109,-6.32897 0.0214,-9.49344 -0.011,-1.473958 -0.0222,-2.947915 -0.0335,-4.466535 0.10861,-8.742955 0.98771,-14.163581 6.23952,-21.250562 7.19231,-5.577702 12.23847,-7.018502 21.21101,-7.027911 z"
       fill="#313c42"
       id="path2"
       style="stroke-width:1.36958" />
    <path
       d="m 251.02212,68.579061 c 0.91062,-0.0027 1.82126,-0.0055 2.75948,-0.0082 3.07309,-0.0082 6.1461,-0.0055 9.21921,-0.0041 2.21687,-0.0041 4.43373,-0.0082 6.6506,-0.01233 6.10906,-0.01096 12.2181,-0.0137 18.32717,-0.01452 6.582,-0.0027 13.164,-0.01233 19.74601,-0.02205 14.40035,-0.01863 28.8007,-0.02684 43.20106,-0.03287 8.98801,-0.0041 17.97603,-0.0096 26.96404,-0.01575 24.87463,-0.01671 49.74925,-0.03082 74.62388,-0.03547 2.38904,-4.52e-4 2.38904,-4.52e-4 4.82634,-9.03e-4 1.59656,-3.02e-4 3.19311,-6.03e-4 4.83804,-9.18e-4 3.23534,-6.03e-4 6.47067,-0.0012 9.70601,-0.0014 1.60484,-3.01e-4 3.20969,-6.02e-4 4.86317,-9.17e-4 26.00907,-0.0055 52.01808,-0.02931 78.02711,-0.06122 26.68931,-0.03246 53.37858,-0.04958 80.0679,-0.05109 14.99061,-0.0012 29.98117,-0.0096 44.97178,-0.03397 12.76414,-0.02109 25.5282,-0.02808 38.29236,-0.01684 6.51408,0.0055 13.02799,0.0041 19.54206,-0.0152 5.96282,-0.01739 11.92532,-0.01589 17.88813,8.08e-4 2.15764,0.0027 4.31529,-0.0014 6.4729,-0.0137 2.93348,-0.0152 5.86585,-0.0055 8.7993,0.01096 1.62919,-8.22e-4 3.25839,-0.0014 4.93696,-0.0027 6.47546,0.714798 11.92422,2.604629 16.90995,6.974593 0.6391,0.805054 1.2782,1.610108 1.93667,2.439567 0.99042,1.207587 0.99042,1.207587 2.00087,2.439567 2.91834,4.30895 3.14953,8.121796 3.20628,13.167169 0.0175,1.362748 0.0352,2.725495 0.0533,4.129535 0.0152,2.208423 0.0152,2.208423 0.0307,4.461448 0.011,1.51857 0.0221,3.03713 0.0336,4.60172 0.0189,3.2178 0.0337,6.43565 0.0444,9.65349 0.0236,4.90275 0.0837,9.80422 0.14411,14.70662 0.0138,3.12881 0.0255,6.25763 0.0348,9.38645 0.024,1.45842 0.0479,2.91683 0.0727,4.41944 -0.0264,9.13144 -1.28946,14.94897 -6.13414,22.74214 -2.73916,2.51981 -2.73916,2.51981 -5.47832,4.02315 -0.90392,0.52081 -1.80785,1.04163 -2.73916,1.57822 -5.70613,2.59674 -10.81792,2.78669 -17.06229,2.78465 -1.33447,0.003 -1.33447,0.003 -2.69588,0.004 -2.99339,0.004 -5.98668,-0.003 -8.98006,-0.008 -2.16274,6e-4 -4.32548,0.001 -6.48822,0.004 -5.95272,0.003 -11.90538,-0.003 -17.85809,-0.01 -6.41563,-0.005 -12.83124,-0.004 -19.24685,-0.003 -11.11873,7.2e-4 -22.23743,-0.004 -33.35614,-0.011 -16.07589,-0.011 -32.15178,-0.0147 -48.22766,-0.0164 -26.08075,-0.003 -52.1615,-0.0123 -78.24224,-0.0251 -25.33815,-0.0123 -50.6763,-0.0223 -76.01444,-0.0281 -1.5613,-3.5e-4 -3.12259,-7.1e-4 -4.73121,-0.001 -7.8324,-0.001 -15.6648,-0.004 -23.49722,-0.005 -64.9991,-0.0142 -129.99819,-0.0385 -194.99729,-0.0689 0,5.8755 0,11.75101 0,17.80456 -0.45196,0 -0.90393,0 -1.36958,0 0,-5.87551 0,-11.75101 0,-17.80456 -1.80785,-0.0848 -3.6157,-0.16949 -5.47833,-0.2568 -6.99708,-0.81541 -12.78463,-2.89777 -17.80456,-7.96069 -5.68277,-9.20527 -6.28646,-16.58241 -6.20591,-27.26859 -0.005,-1.54251 -0.011,-3.08503 -0.0159,-4.67431 -0.004,-3.24714 0.007,-6.49433 0.0293,-9.74139 0.0293,-4.95664 2.2e-4,-9.91057 -0.0348,-14.86712 0.004,-3.16449 0.011,-6.32898 0.0214,-9.49345 -0.0167,-2.210929 -0.0167,-2.210929 -0.0336,-4.466533 0.10861,-8.742956 0.98772,-14.163581 6.23953,-21.250563 7.1923,-5.577702 12.23847,-7.018502 21.21101,-7.027911 z"
       fill="#3b4e5d"
       id="path3"
       style="stroke-width:1.36958" />
    <path
       d="m 254.46358,175.58642 c 170.38962,0 340.77925,0 516.33219,0 0,8.13531 0,16.27062 0,24.65246 -170.38962,0 -340.77925,0 -516.33219,0 -0.45196,0.90393 -0.90393,1.80785 -1.36958,2.73916 0.45196,-9.03923 0.90392,-18.07847 1.36958,-27.39162 z"
       fill="#1b2225"
       id="path5"
       style="stroke-width:1.36958" />
    <path
       d="m 653.01177,597.41749 c 3.93755,3.33836 3.93755,3.33836 6.84791,6.84791 0.96042,1.07341 1.92083,2.14682 2.91036,3.25275 8.89388,12.45144 9.38148,27.17658 8.04629,41.94344 -2.79536,13.81747 -7.44357,24.52319 -19.17414,32.86995 -8.73388,4.70576 -18.01233,5.6275 -27.66983,3.4186 -11.0435,-3.68819 -17.07579,-10.47522 -22.65159,-20.41533 -6.7996,-14.00042 -6.33655,-31.29411 -2.15067,-46.00402 4.73477,-13.38515 10.83276,-19.78191 23.71088,-26.02204 10.92011,-3.38053 20.26217,-1.14088 30.13079,4.10874 z"
       fill="#359afa"
       id="path12"
       style="stroke-width:1.36958" />
    <path
       d="m 409.22628,596.04791 c 10.65229,6.89716 16.04601,16.70743 19.60213,28.67561 3.03216,14.5777 1.25965,31.52663 -6.24871,44.5114 -5.818,8.25668 -13.2021,14.28384 -22.94049,17.20536 -10.218,1.25784 -18.59792,-0.0244 -27.39163,-5.47832 -10.46944,-8.84086 -15.52166,-19.58395 -16.69377,-33.1194 -0.93369,-16.35127 -0.42177,-30.87134 10.18826,-44.17635 11.75513,-12.36316 28.25365,-15.07382 43.48421,-7.6183 z"
       fill="#359afa"
       id="path13"
       style="stroke-width:1.36958" />
    <path
       d="m 494.06542,747.04426 c 9.31599,7.0979 14.07345,17.99189 16.11933,29.33365 1.72892,14.13915 0.0179,28.5376 -7.74134,40.8574 -7.23385,8.7683 -13.64025,14.94282 -25.21421,16.27983 -11.87948,0.36844 -19.38532,-0.83627 -28.44556,-8.44218 -10.57879,-10.40441 -13.70298,-23.70873 -14.13451,-38.22524 0.55893,-14.83866 4.48853,-28.18963 15.60574,-38.53017 14.37544,-11.37942 28.72348,-10.9678 43.81055,-1.27329 z"
       fill="#359afa"
       id="path14"
       style="stroke-width:1.36958" />
    <path
       d="m 490.20278,448.88746 c 9.31307,7.19823 16.76029,16.30303 19.00294,28.00687 1.69254,17.9342 1.78681,35.4072 -10.10066,49.90412 -7.89048,8.24529 -14.89431,11.84719 -26.36444,12.24063 -9.95666,-0.10929 -17.32498,-3.02926 -24.90927,-9.46936 -10.80116,-11.39522 -13.07905,-26.73721 -12.87192,-41.85784 1.05011,-14.42934 6.74301,-26.30022 17.40866,-36.06921 10.36571,-8.11718 26.29751,-9.60541 37.83469,-2.75521 z"
       fill="#359bfb"
       id="path15"
       style="stroke-width:1.36958" />
    <path
       d="m 651.043,300.98871 c 10.3174,6.40081 16.20043,16.80318 19.21158,28.34927 2.69575,17.99729 1.25241,35.25114 -9.45867,50.34281 -4.44705,5.23123 -9.44281,8.74363 -16.00163,10.92991 -22.46343,1.74909 -22.46343,1.74909 -30.58019,-4.64375 -0.75561,-0.72737 -1.51124,-1.45474 -2.28976,-2.20416 -0.86862,-0.81212 -1.73723,-1.62424 -2.63217,-2.46097 -6.06158,-6.26196 -9.09391,-12.38237 -11.06365,-20.82191 -0.24893,-1.05222 -0.49787,-2.10445 -0.75433,-3.18857 -2.55484,-15.19567 -1.54324,-31.19865 7.28124,-44.20109 11.55824,-13.97 28.6821,-19.9375 46.28758,-12.10154 z"
       fill="#369bfa"
       id="path16"
       style="stroke-width:1.36958" />
    <path
       d="m 330.00991,449.08006 c 10.12625,7.20231 16.12835,15.57469 18.95479,27.81427 1.84582,16.12193 1.90018,32.39872 -6.84791,46.56577 -0.49434,0.84566 -0.98867,1.69132 -1.49798,2.56261 -4.57025,6.54525 -11.61245,10.17618 -19.04574,12.50278 -10.50754,1.47724 -19.87828,1.22921 -28.90031,-4.72399 -9.22,-7.53157 -14.49188,-16.29339 -16.29588,-28.14596 -1.16313,-18.03558 -1.76321,-33.83221 10.01507,-48.44895 11.15633,-11.85061 28.92346,-16.81102 43.61796,-8.12653 z"
       fill="#359bfb"
       id="path17"
       style="stroke-width:1.36958" />
    <path
       d="m 732.44749,450.87228 c 10.23925,7.71851 16.02434,18.86301 17.80456,31.50037 1.28205,15.63208 -0.68096,31.27419 -10.22371,44.09946 -6.04636,7.09252 -13.12589,11.50178 -22.42155,12.44927 -11.49308,0.31846 -20.0614,-0.92311 -28.64351,-8.87017 -9.60401,-10.39158 -13.20694,-23.20519 -13.09662,-37.1499 0.008,-1.02398 0.0155,-2.04795 0.0234,-3.10296 0.29576,-13.51744 3.90164,-24.37909 12.73082,-34.81733 12.90064,-11.91275 28.81347,-12.53499 43.82661,-4.10874 z"
       fill="#31E57A"
       id="path18"
       style="fill:#359bfb;fill-opacity:1;stroke-width:1.36958" />
    <path
       d="m 713.70135,740.88114 c 1.7743,-0.0353 3.54861,-0.0707 5.37667,-0.10696 8.15817,0.71162 14.40783,4.37217 20.21738,10.03647 10.64169,14.62902 12.42181,28.69443 10.95665,46.56577 -2.25749,11.2753 -5.56116,22.32445 -15.0547,29.4353 -10.53266,6.82886 -20.58825,7.29013 -32.88065,6.17382 -4.48708,-1.53 -7.52021,-3.61651 -10.95665,-6.84791 -0.75386,-0.6956 -1.50772,-1.39119 -2.28442,-2.10787 -11.33836,-11.81428 -13.46968,-27.5521 -13.16082,-43.27557 0.86955,-12.11255 5.68503,-22.54472 14.07566,-31.31312 7.69763,-6.56755 13.65531,-8.44053 23.71088,-8.55988 z"
       fill="#369afb"
       id="path19"
       style="stroke-width:1.36958" />
    <path
       d="m 327.30819,743.36351 c 10.65007,5.77218 16.29998,12.55075 20.28692,23.88208 3.83211,15.00457 3.06091,32.83141 -4.10874,46.56576 -0.56495,1.12461 -1.1299,2.24921 -1.71198,3.40791 -4.8728,8.4582 -10.74932,13.17715 -20.20132,15.76623 -9.13202,1.16682 -18.57006,1.92559 -26.79244,-2.82476 -2.46631,-1.92062 -2.46631,-1.92062 -4.70793,-4.02314 -0.75386,-0.67971 -1.50772,-1.35942 -2.28443,-2.05973 -11.18827,-11.46453 -12.21731,-25.53991 -12.05572,-40.79219 0.46022,-13.69 3.45301,-24.21557 13.05616,-34.31544 11.41631,-9.75911 24.94846,-11.95337 38.51948,-5.60672 z"
       fill="#359afb"
       id="path20"
       style="stroke-width:1.36958" />
    <path
       d="m 410.64936,302.4332 c 9.51357,6.70877 14.49607,15.52252 17.75106,26.54633 0.71259,5.02319 0.78708,9.91286 0.68479,14.9798 -0.0263,1.98384 -0.0263,1.98384 -0.0531,4.00777 -0.40422,14.19912 -3.3487,24.5674 -13.32166,34.98786 -8.80409,8.07042 -17.59374,8.15614 -29.10895,8.02488 -9.0965,-0.70444 -14.48959,-4.21245 -20.85936,-10.5554 -10.66514,-13.32532 -11.52198,-30.67807 -10.30597,-47.07201 1.54873,-12.35399 8.02008,-23.20263 17.72632,-30.81758 10.76348,-6.63251 26.51127,-5.9363 37.48693,-0.10162 z"
       fill="#31E67B"
       id="path21"
       style="fill:#359bfb;fill-opacity:1;stroke-width:1.36958" />
    <path
       d="m 563.90338,594.84953 c 11.16684,6.83684 17.88772,14.61498 21.46926,27.50397 2.31356,16.7091 2.73757,35.11433 -7.11006,49.42263 -6.17408,7.63417 -13.99072,13.87899 -24.08537,14.9905 -11.06265,0.33363 -18.35191,-2.7275 -27.50933,-8.71503 -10.89276,-11.38789 -13.94129,-26.20807 -13.84829,-41.51544 0.35247,-14.0738 4.07221,-25.09615 14.12114,-35.21857 1.39032,-1.2526 1.39032,-1.2526 2.80871,-2.53052 1.07254,-0.97719 1.07254,-0.97719 2.16672,-1.97413 8.37164,-6.08268 22.62429,-5.50901 31.98722,-1.96341 z"
       fill="#31E57A"
       id="path22"
       style="fill:#359bfb;fill-opacity:1;stroke-width:1.36958" />
    <path
       d="m 566.04335,300.90312 c 10.57741,6.5764 16.41649,16.33584 19.85893,28.07641 0.74967,5.22007 0.85083,10.31132 0.77039,15.57899 -0.0211,2.07355 -0.0211,2.07355 -0.0425,4.18899 -0.38066,13.3721 -2.97436,23.59136 -12.19816,33.7313 -9.38425,8.18625 -17.6796,9.06561 -29.981,8.77388 -9.13231,-1.14631 -15.1828,-4.87692 -21.32481,-11.62005 -10.20434,-13.83809 -11.03676,-29.97297 -9.81176,-46.54436 1.79381,-11.21133 6.74732,-20.95506 15.1831,-28.61676 10.70108,-7.59032 25.41462,-8.80794 37.54578,-3.5684 z"
       fill="#31E67B"
       id="path23"
       style="fill:#359bfb;fill-opacity:1;stroke-width:1.36958" />
    <path
       d="m 643.4247,741.22354 c 0,24.40594 0,48.81188 0,73.9574 5.8755,0 11.75101,0 17.80456,0 2.28119,2.28118 1.604,5.01216 1.62638,8.13189 0.0194,1.227 0.0389,2.45401 0.0589,3.71819 -0.31569,3.21531 -0.31569,3.21531 -3.05485,5.95447 -3.99574,0.27389 -7.85869,0.38314 -11.85544,0.36379 -1.1752,0.003 -2.35041,0.005 -3.56122,0.008 -2.48677,0.001 -4.97355,-0.003 -7.4603,-0.0146 -3.81458,-0.0147 -7.62828,-1.4e-4 -11.44282,0.0174 -2.41282,-0.001 -4.82564,-0.005 -7.23846,-0.011 -1.71844,0.008 -1.71844,0.008 -3.4716,0.0169 -8.06894,-0.0657 -8.06894,-0.0657 -11.123,-3.11976 -0.31565,-3.21531 -0.31565,-3.21531 -0.2568,-6.9335 0.008,-1.23054 0.0177,-2.46107 0.0267,-3.72891 0.23009,-3.03344 0.23009,-3.03344 1.59967,-4.40302 6.32747,0 12.65493,0 19.17414,0 0,-18.07848 0,-36.15695 0,-54.78326 -6.32747,0.45196 -12.65493,0.90392 -19.17414,1.36958 -1.36958,-1.36958 -1.36958,-1.36958 -1.50333,-4.1997 0.0159,-1.12814 0.0318,-2.25627 0.0482,-3.4186 0.0123,-1.13167 0.0248,-2.26334 0.0374,-3.4293 0.0159,-0.87391 0.0318,-1.74782 0.0482,-2.64821 5.25485,-2.26758 10.4219,-3.72639 16.00699,-4.96474 1.55891,-0.35662 3.11782,-0.71325 4.72398,-1.08068 5.29103,-0.80249 5.29103,-0.80249 18.98684,-0.80249 z"
       fill="#31e47a"
       id="path25"
       style="stroke-width:1.36958" />
    <path
       d="m 403.74795,741.22354 c 0,24.40594 0,48.81188 0,73.9574 6.32747,0 12.65493,0 19.17414,0 0.13381,12.70607 0.13381,12.70607 0,16.43497 -2.59704,2.59704 -6.38731,1.54623 -9.84219,1.55989 -1.78043,-0.004 -1.78043,-0.004 -3.59683,-0.008 -1.81617,10e-4 -1.81617,10e-4 -3.66905,0.004 -2.56517,9.3e-4 -5.13036,-10e-4 -7.69553,-0.007 -3.94073,-0.007 -7.88127,-8e-5 -11.822,0.008 -2.48593,-9.1e-4 -4.97187,-0.003 -7.4578,-0.005 -1.18695,0.003 -2.37391,0.005 -3.59682,0.008 -8.31518,-0.0329 -8.31518,-0.0329 -9.8422,-1.55989 -0.1966,-5.48135 -0.0578,-10.94901 0,-16.43497 6.32747,0 12.65494,0 19.17414,0 0,-18.07848 0,-36.15695 0,-54.78326 -2.25981,0.45196 -4.51962,0.90392 -6.8479,1.36958 -4.12017,0.16376 -8.20009,0.0616 -12.32624,0 0,-4.97158 0,-9.94316 0,-15.06539 3.81964,-0.93203 7.64254,-1.84139 11.47025,-2.73917 1.59157,-0.39193 1.59157,-0.39193 3.21531,-0.79179 8.4036,-1.94463 14.64447,-1.94737 23.66272,-1.94737 z"
       fill="#31e47a"
       id="path26"
       style="stroke-width:1.36958" />
    <path
       d="m 403.74795,446.76354 c 0,24.40594 0,48.81188 0,73.95739 6.32747,0 12.65493,0 19.17414,0 0.13381,11.63609 0.13381,11.63609 0,15.0654 -2.63311,2.63311 -6.54776,1.54636 -10.05101,1.55988 -1.2169,-0.003 -2.43382,-0.005 -3.6876,-0.008 -1.24118,10e-4 -2.48237,0.003 -3.76117,0.004 -2.62965,9.4e-4 -5.25932,-10e-4 -7.88897,-0.007 -4.03994,-0.007 -8.07965,-9e-5 -12.11959,0.008 -2.54835,-9e-4 -5.09669,-0.003 -7.64504,-0.005 -1.82537,0.004 -1.82537,0.004 -3.6876,0.008 -8.524,-0.0329 -8.524,-0.0329 -10.05102,-1.55988 -0.13449,-2.27938 -0.17769,-4.56457 -0.1712,-6.84791 -0.004,-1.24289 -0.007,-2.48579 -0.0109,-3.76635 0.18189,-3.08156 0.18189,-3.08156 1.55147,-4.45114 6.32747,0 12.65494,0 19.17414,0 0,-18.07847 0,-36.15695 0,-54.78325 -6.32746,0.45196 -12.65493,0.90392 -19.17414,1.36958 -2.17618,-2.17619 -1.60238,-4.44843 -1.62638,-7.4471 -0.0194,-1.0999 -0.0389,-2.19978 -0.0589,-3.333 0.31595,-2.91572 0.31595,-2.91572 3.05511,-5.65488 3.10665,-0.86605 6.2549,-1.58562 9.41588,-2.22557 1.69132,-0.35662 3.38264,-0.71325 5.12523,-1.08068 7.41798,-0.99172 14.95361,-0.80249 22.43759,-0.80249 z"
       fill="#31e37a"
       id="path27"
       style="stroke-width:1.36958" />
    <path
       d="m 562.6194,741.22354 c 0,24.40594 0,48.81188 0,73.9574 6.32746,0 12.65493,0 19.17414,0 0.1338,12.70607 0.1338,12.70607 0,16.43497 -2.59705,2.59704 -6.38732,1.54623 -9.8422,1.55989 -1.78043,-0.004 -1.78043,-0.004 -3.59682,-0.008 -1.81618,10e-4 -1.81618,10e-4 -3.66906,0.004 -2.56517,9.3e-4 -5.13035,-10e-4 -7.69552,-0.007 -3.94074,-0.007 -7.88127,-8e-5 -11.82201,0.008 -2.48593,-9.1e-4 -4.97187,-0.003 -7.4578,-0.005 -1.18694,0.003 -2.3739,0.005 -3.59682,0.008 -8.31518,-0.0329 -8.31518,-0.0329 -9.84219,-1.55989 -0.13491,-2.50792 -0.17768,-5.02116 -0.1712,-7.53269 -0.004,-1.37001 -0.007,-2.74003 -0.011,-4.15155 0.18216,-3.38115 0.18216,-3.38115 1.55174,-4.75073 6.32746,0 12.65493,0 19.17414,0 0,-18.07848 0,-36.15695 0,-54.78326 -2.71177,0.45196 -5.42354,0.90392 -8.21749,1.36958 -3.69827,0.21348 -7.2431,0.12587 -10.95665,0 -1.36958,-1.36958 -1.36958,-1.36958 -1.50334,-4.49929 0.0159,-1.25525 0.0318,-2.5105 0.0482,-3.8038 0.0123,-1.25878 0.0248,-2.51756 0.0374,-3.8145 0.0159,-0.97277 0.0318,-1.94554 0.0482,-2.9478 3.81964,-0.93203 7.64254,-1.84139 11.47025,-2.73917 1.59157,-0.39193 1.59157,-0.39193 3.21531,-0.79179 8.4036,-1.94463 14.64447,-1.94737 23.66272,-1.94737 z"
       fill="#31e57b"
       id="path28"
       style="stroke-width:1.36958" />
    <path
       d="m 321.57307,298.84874 c 0,24.40594 0,48.81189 0,73.9574 6.32746,0 12.65493,0 19.17414,0 0.13381,12.70607 0.13381,12.70607 0,16.43498 -2.86847,2.86846 -9.13054,1.59438 -13.09127,1.59963 -1.17714,0.004 -2.35428,0.01 -3.56709,0.0138 -2.49495,0.007 -4.9899,0.01 -7.48486,0.01 -3.82663,0.003 -7.65274,0.0278 -11.47928,0.0538 -2.41905,0.004 -4.83811,0.007 -7.25717,0.008 -1.14992,0.01 -2.29985,0.0197 -3.48462,0.0299 -8.10558,-0.0321 -8.10558,-0.0321 -11.15813,-3.08463 -0.31565,-3.21531 -0.31565,-3.21531 -0.2568,-6.93351 0.008,-1.23054 0.0177,-2.46107 0.0267,-3.7289 0.23009,-3.03331 0.23009,-3.03331 1.59967,-4.40289 6.32747,0 12.65493,0 19.17414,0 -0.45196,-17.62651 -0.90392,-35.25303 -1.36958,-53.41368 -8.81326,0.67795 -8.81326,0.67795 -17.80456,1.36959 -1.36958,-1.36959 -1.36958,-1.36959 -1.50334,-4.4993 0.0159,-1.25525 0.0318,-2.5105 0.0482,-3.80379 0.0123,-1.25878 0.0248,-2.51757 0.0374,-3.8145 0.0159,-0.97278 0.0318,-1.94555 0.0482,-2.94781 5.82342,-2.03554 11.60959,-3.63655 17.63336,-4.96473 1.57834,-0.35663 3.15667,-0.71325 4.78284,-1.08068 4.97538,-0.8025 4.97538,-0.8025 15.93203,-0.8025 z"
       fill="#30e47a"
       id="path29"
       style="stroke-width:1.36958" />
    <path
       d="m 483.18367,593.30875 c 0,24.8579 0,49.7158 0,75.32697 6.32747,0 12.65494,0 19.17414,0 0.13381,11.63609 0.13381,11.63609 0,15.0654 -2.59704,2.59704 -6.38731,1.54623 -9.84219,1.55989 -1.78043,-0.004 -1.78043,-0.004 -3.59682,-0.008 -1.81618,10e-4 -1.81618,10e-4 -3.66906,0.004 -2.56517,9.3e-4 -5.13035,-0.001 -7.69552,-0.007 -3.94074,-0.007 -7.88127,-8e-5 -11.82201,0.008 -2.48593,-9.1e-4 -4.97187,-0.003 -7.4578,-0.005 -1.18695,0.003 -2.37391,0.005 -3.59682,0.008 -8.31518,-0.0329 -8.31518,-0.0329 -9.8422,-1.55989 -0.1966,-5.48135 -0.0578,-10.94901 0,-16.43498 6.77943,0 13.55886,0 20.54373,0 0,-18.07847 0,-36.15695 0,-54.78325 -6.77943,0.45196 -13.55886,0.90392 -20.54373,1.36958 -1.36958,-1.36958 -1.36958,-1.36958 -1.50333,-4.1997 0.0159,-1.12814 0.0318,-2.25628 0.0482,-3.4186 0.0123,-1.13167 0.0248,-2.26334 0.0374,-3.42931 0.0159,-0.8739 0.0318,-1.74782 0.0482,-2.64821 13.42013,-4.97041 25.33639,-6.8479 39.71786,-6.8479 z"
       fill="#31e77b"
       id="path30"
       style="stroke-width:1.36958" />
    <path
       d="m 724.23,593.30875 c 0,24.40594 0,48.81188 0,73.95739 5.87551,0 11.75101,0 17.80456,0 1.36958,1.36958 1.36958,1.36958 1.55148,4.40299 -0.004,1.23054 -0.007,2.46108 -0.011,3.7289 0.005,1.84052 0.005,1.84052 0.011,3.7182 -0.1819,3.21531 -0.1819,3.21531 -1.55148,5.95447 -18.53044,0 -37.06087,0 -56.15284,0 0,-5.42354 0,-10.84708 0,-16.43498 6.32747,-0.45196 12.65494,-0.90392 19.17414,-1.36958 0.45197,-18.07847 0.90393,-36.15695 1.36958,-54.78325 -2.2598,0.45196 -4.51961,0.90392 -6.8479,1.36958 -2.39443,0.12038 -4.79287,0.17837 -7.1903,0.1712 -1.7902,0.005 -1.7902,0.005 -3.61656,0.0109 -2.88896,-0.18215 -2.88896,-0.18215 -4.25854,-1.55173 -0.0983,-2.08078 -0.11491,-4.16583 -0.0856,-6.24872 0.0123,-1.13167 0.0248,-2.26334 0.0374,-3.42931 0.0159,-0.8739 0.0318,-1.74782 0.0482,-2.64821 5.54659,-1.90975 11.07793,-3.57496 16.77737,-4.96473 2.12917,-0.53494 2.12917,-0.53494 4.30134,-1.08068 4.94334,-0.80249 4.94334,-0.80249 18.63915,-0.80249 z"
       fill="#31e67b"
       id="path31"
       style="stroke-width:1.36958" />
    <path
       d="m 722.86042,298.84874 c 1.36958,1.36958 1.36958,1.36958 1.53428,4.29 -0.004,1.92971 -0.004,1.92971 -0.01,3.8984 -1.1e-4,1.45316 -2.2e-4,2.90632 -3.2e-4,4.40351 -0.007,1.5807 -0.0141,3.1614 -0.0214,4.79001 -10e-4,1.60922 -0.004,3.21845 -0.005,4.87644 -0.008,5.16361 -0.0249,10.32714 -0.0423,15.49073 -0.007,3.49083 -0.0137,6.98165 -0.0188,10.47248 -0.0152,8.57865 -0.0388,17.15722 -0.0668,25.73583 6.32747,0 12.65493,0 19.17414,0 0.26749,11.50235 0.26749,11.50235 0,15.0654 -2.73916,2.73916 -2.73916,2.73916 -8.07906,3.05012 -2.30386,-4.4e-4 -4.60774,-0.016 -6.91143,-0.0434 -1.2121,-0.004 -2.4242,-0.008 -3.67303,-0.0123 -3.87967,-0.0153 -7.75892,-0.0497 -11.63847,-0.0845 -2.6268,-0.0137 -5.25362,-0.0263 -7.88045,-0.0374 -6.44682,-0.0303 -12.89333,-0.0775 -19.33998,-0.13381 0,-5.42354 0,-10.84709 0,-16.43498 6.77943,0 13.55886,0 20.54372,0 0,-18.53043 0,-37.06087 0,-56.15284 -6.32746,0.90393 -12.65493,1.80785 -19.17414,2.73917 -2.73916,-2.73917 -2.73916,-2.73917 -3.10296,-5.30713 0.007,-0.96042 0.0141,-1.92084 0.0214,-2.91036 -0.007,-0.96042 -0.0141,-1.92084 -0.0214,-2.91036 0.3638,-2.56797 0.3638,-2.56797 3.10296,-5.30713 3.94148,-1.0953 7.8205,-2.04806 11.81264,-2.91036 1.07164,-0.24894 2.14329,-0.49787 3.2474,-0.75434 6.99699,-1.54328 13.38281,-2.18402 20.54908,-1.81363 z"
       fill="#31e67b"
       id="path32"
       style="stroke-width:1.36958" />
    <path
       d="m 481.81409,298.84874 c 1.36958,1.36958 1.36958,1.36958 1.53428,4.34199 -0.004,1.96621 -0.004,1.96621 -0.01,3.97214 -1.1e-4,1.48057 -2.2e-4,2.96116 -3.2e-4,4.4866 -0.007,1.61065 -0.0141,3.22132 -0.0214,4.88079 -10e-4,1.63962 -0.004,3.27924 -0.005,4.96855 -0.008,5.2613 -0.0249,10.52252 -0.0423,15.78381 -0.007,3.5568 -0.0137,7.11362 -0.0188,10.67042 -0.0152,8.74093 -0.0388,17.48179 -0.0668,26.22268 6.32747,0 12.65493,0 19.17414,0 0.13381,11.63609 0.13381,11.63609 0,15.0654 -2.59704,2.59704 -6.38732,1.54623 -9.84219,1.55988 -1.78043,-0.004 -1.78043,-0.004 -3.59683,-0.008 -1.81617,10e-4 -1.81617,10e-4 -3.66905,0.004 -2.56517,9.3e-4 -5.13036,-0.001 -7.69553,-0.007 -3.94073,-0.007 -7.88127,-8e-5 -11.822,0.008 -2.48593,-9e-4 -4.97187,-0.003 -7.4578,-0.005 -1.18695,0.003 -2.37391,0.005 -3.59682,0.008 -8.31518,-0.0329 -8.31518,-0.0329 -9.8422,-1.55988 -0.19598,-5.02522 -0.0578,-10.03515 0,-15.0654 6.77943,0 13.55886,0 20.54372,0 0,-18.53044 0,-37.06087 0,-56.15284 -4.06765,0.90393 -8.13531,1.80785 -12.32623,2.73917 -4.87913,0.17119 -4.87913,0.17119 -8.21749,0 -1.52633,-3.05268 -1.59529,-4.83538 -1.62638,-8.21749 -0.0194,-0.96042 -0.0389,-1.92084 -0.0589,-2.91036 0.31565,-2.56797 0.31565,-2.56797 3.05481,-5.30713 3.94148,-1.0953 7.8205,-2.04806 11.81264,-2.91036 1.07164,-0.24894 2.14329,-0.49787 3.2474,-0.75434 6.99699,-1.54328 13.38281,-2.18402 20.54908,-1.81363 z"
       fill="#31e77b"
       id="path33"
       style="stroke-width:1.36958" />
    <path
       d="m 321.57307,593.30875 c 0,24.8579 0,49.7158 0,75.32697 6.32746,0 12.65493,0 19.17414,0 0.13381,11.63609 0.13381,11.63609 0,15.0654 -2.59704,2.59704 -6.38732,1.54623 -9.8422,1.55989 -1.78043,-0.004 -1.78043,-0.004 -3.59682,-0.008 -1.81617,10e-4 -1.81617,10e-4 -3.66905,0.004 -2.56518,9.3e-4 -5.13036,-0.001 -7.69553,-0.007 -3.94074,-0.007 -7.88127,-8e-5 -11.82201,0.008 -2.48593,-9.1e-4 -4.97187,-0.003 -7.45779,-0.005 -1.18695,0.003 -2.37391,0.005 -3.59683,0.008 -8.31518,-0.0329 -8.31518,-0.0329 -9.84219,-1.55989 -0.19599,-5.02521 -0.0578,-10.03514 0,-15.0654 6.77943,0 13.55885,0 20.54372,0 -0.45196,-18.53043 -0.90392,-37.06087 -1.36958,-56.15283 -8.81326,0.67794 -8.81326,0.67794 -17.80456,1.36958 -1.36958,-1.36958 -1.36958,-1.36958 -1.50334,-4.1997 0.0159,-1.12814 0.0318,-2.25628 0.0482,-3.4186 0.0123,-1.13167 0.0248,-2.26334 0.0374,-3.42931 0.0159,-0.8739 0.0318,-1.74782 0.0482,-2.64821 13.24825,-5.39743 23.8404,-6.8479 38.34828,-6.8479 z"
       fill="#30e77b"
       id="path34"
       style="stroke-width:1.36958" />
    <path
       d="m 642.05512,446.76354 c 0,24.40594 0,48.81188 0,73.95739 6.32746,0 12.65493,0 19.17414,0 1.36958,1.36958 1.36958,1.36958 1.55147,4.45114 -0.004,1.2429 -0.007,2.48579 -0.0109,3.76635 0.005,1.86434 0.005,1.86434 0.0109,3.76635 -0.18189,3.08156 -0.18189,3.08156 -1.55147,4.45114 -4.24914,0.12148 -8.46769,0.15775 -12.71678,0.13381 -1.27484,-10e-4 -2.54966,-0.004 -3.86313,-0.005 -4.08901,-0.008 -8.17792,-0.0249 -12.2669,-0.0423 -2.76502,-0.007 -5.53004,-0.0137 -8.29506,-0.0188 -6.79356,-0.0151 -13.58704,-0.0388 -20.38055,-0.0668 -0.0368,-2.48226 -0.0634,-4.96466 -0.0856,-7.4471 -0.0159,-1.38237 -0.0318,-2.76473 -0.0482,-4.18899 0.13381,-3.42972 0.13381,-3.42972 1.50339,-4.7993 6.32747,0 12.65493,0 19.17414,0 0,-18.07847 0,-36.15695 0,-54.78325 -6.32747,0.45196 -12.65493,0.90392 -19.17414,1.36958 -1.36958,-1.36958 -1.36958,-1.36958 -1.50333,-4.4993 0.0159,-1.25525 0.0318,-2.51049 0.0482,-3.80379 0.0123,-1.25878 0.0248,-2.51756 0.0374,-3.8145 0.0159,-0.97278 0.0318,-1.94555 0.0482,-2.94781 3.81964,-0.93203 7.64254,-1.84139 11.47025,-2.73916 1.59157,-0.39193 1.59157,-0.39193 3.21531,-0.7918 8.4036,-1.94462 14.64447,-1.94736 23.66272,-1.94736 z"
       fill="#31e57a"
       id="path35"
       style="stroke-width:1.36958" />
    <path
       d="m 562.6194,446.76354 c 0,24.40594 0,48.81188 0,73.95739 6.32746,0 12.65493,0 19.17414,0 0.1338,11.63609 0.1338,11.63609 0,15.0654 -2.59705,2.59704 -6.38732,1.54623 -9.8422,1.55988 -1.78043,-0.004 -1.78043,-0.004 -3.59682,-0.008 -1.81618,10e-4 -1.81618,10e-4 -3.66906,0.004 -2.56517,9.4e-4 -5.13035,-10e-4 -7.69552,-0.007 -3.94074,-0.007 -7.88127,-9e-5 -11.82201,0.008 -2.48593,-9e-4 -4.97187,-0.003 -7.4578,-0.005 -1.18694,0.003 -2.3739,0.005 -3.59682,0.008 -8.31518,-0.0329 -8.31518,-0.0329 -9.84219,-1.55988 -0.19599,-5.02522 -0.0578,-10.03514 0,-15.0654 6.77942,0 13.55885,0 20.54372,0 0,-18.53043 0,-37.06087 0,-56.15284 -3.6157,0.90393 -7.23139,1.80785 -10.95665,2.73917 -4.70794,0.25679 -4.70794,0.25679 -8.21749,0 -1.36958,-1.36958 -1.36958,-1.36958 -1.50334,-4.4993 0.0159,-1.25525 0.0318,-2.51049 0.0482,-3.80379 0.0123,-1.25878 0.0248,-2.51756 0.0374,-3.8145 0.0159,-0.97278 0.0318,-1.94555 0.0482,-2.94781 3.3042,-0.93927 6.6126,-1.84662 9.92947,-2.73916 0.90745,-0.26129 1.81491,-0.52258 2.74986,-0.7918 9.14668,-2.41609 15.47002,-1.94736 25.66895,-1.94736 z"
       fill="#31e77b"
       id="path36"
       style="stroke-width:1.36958" />
    <path
       d="m 477.70535,463.19851 c 6.97698,2.69565 9.15661,7.24338 12.32623,13.69582 3.44403,10.46804 2.77494,24.2752 -1.32678,34.45353 -2.64181,4.72323 -4.84748,6.62762 -9.62987,9.37307 -6.76046,1.46597 -11.03418,0.78959 -16.94857,-2.82476 -6.90742,-7.72973 -8.44425,-15.03952 -8.30309,-25.08046 0.01,-1.02254 0.0188,-2.04509 0.0285,-3.09861 0.28964,-9.95931 2.50376,-17.00252 9.13066,-24.54981 5.0892,-2.66026 9.09704,-2.88356 14.723,-1.96878 z"
       fill="#313b3f"
       id="path38"
       style="stroke-width:1.36958" />
    <path
       d="m 637.94637,609.74372 c 6.25527,2.61848 8.95701,6.55041 12.32624,12.32624 1.86711,5.60132 1.67617,10.82447 1.71197,16.69177 0.0282,1.13078 0.0564,2.26158 0.0856,3.42662 0.0583,9.25974 -1.25615,17.10953 -7.4471,24.393 -5.54965,2.89548 -10.13583,3.26484 -16.26378,2.05437 -6.65878,-3.82263 -9.60761,-7.89091 -11.68424,-15.25799 -1.975,-12.04756 -2.67467,-25.93626 3.46676,-36.7861 5.04032,-6.18585 9.85478,-8.00424 17.80455,-6.84791 z"
       fill="#313b3f"
       id="path39"
       style="stroke-width:1.36958" />
    <path
       d="m 317.46432,463.19851 c 6.0043,2.54029 8.73393,5.63456 11.47025,11.38465 3.91158,11.11018 4.38555,24.31475 0,35.35232 -2.96915,5.53056 -6.12773,8.84267 -11.47025,12.15503 -5.32768,0.99894 -7.64825,0.28462 -12.49743,-2.13997 -6.41595,-5.43962 -9.4868,-11.41788 -10.78545,-19.77333 -0.91563,-11.4529 -0.42282,-21.42006 5.47833,-31.50037 5.03959,-5.87953 10.33702,-6.8574 17.80455,-5.47833 z"
       fill="#313c40"
       id="path40"
       style="stroke-width:1.36958" />
    <path
       d="m 480.44451,759.0281 c 6.04488,4.39048 9.25058,10.32394 10.62495,17.57451 1.36333,12.20386 0.85762,24.14622 -6.5162,34.46958 -3.09459,3.6771 -5.25025,4.79199 -10.01507,5.39273 -4.63715,0.33875 -6.51677,0.0453 -10.95665,-1.79758 -7.99086,-7.80502 -9.6984,-15.86345 -9.84387,-26.87803 0.11587,-10.64291 2.15166,-18.56353 9.07348,-26.70684 5.63817,-4.51054 10.8797,-4.06345 17.63336,-2.05437 z"
       fill="#313b3f"
       id="path41"
       style="stroke-width:1.36958" />
    <path
       d="m 396.69674,315.46561 c 5.40065,2.1799 8.31175,5.80246 11.15996,10.77476 4.68409,12.7748 4.32015,27.28558 -1.36958,39.71786 -3.06188,3.65932 -5.34778,6.09784 -9.58707,8.21749 -4.90817,0.37043 -8.63234,0.35524 -13.26782,-1.36958 -5.6337,-4.87238 -8.65197,-11.8999 -10.01507,-19.17414 -0.75614,-11.80752 -1.45517,-22.99872 6.08287,-32.66131 5.24135,-5.33863 9.59945,-6.94414 16.99671,-5.50508 z"
       fill="#313C42"
       id="path42"
       style="fill:#313b3f;fill-opacity:1;stroke-width:1.36958" />
    <path
       d="m 399.63921,611.11331 c 6.9731,6.37964 9.58955,13.24682 10.04717,22.54459 0.0325,2.24324 0.05,4.48674 0.0536,6.73021 0.0335,1.11225 0.0671,2.2245 0.10162,3.37046 0.0446,9.27714 -2.39015,16.37918 -8.40474,23.50757 -5.14657,2.22555 -9.99156,2.19781 -15.49339,1.36958 -5.70099,-2.66046 -7.62068,-6.48254 -10.01506,-12.06943 -3.92988,-12.04733 -4.70341,-25.21301 0.68479,-36.8931 5.67756,-9.50477 12.42146,-12.02419 23.02609,-8.55988 z"
       fill="#313b3f"
       id="path43"
       style="stroke-width:1.36958" />
    <path
       d="m 554.40191,609.74372 c 5.61414,2.69912 7.7821,4.65258 10.69985,10.18627 4.43669,13.31005 5.17583,27.52624 -0.85063,40.44009 -2.36143,4.03379 -4.27337,6.1625 -8.47964,8.26564 -5.47949,0.94666 -9.6842,0.53726 -14.8086,-1.62637 -4.95735,-4.10753 -7.18897,-8.6008 -8.47428,-14.8086 -0.39644,-4.44618 -0.44205,-8.89154 -0.5136,-13.35342 -0.0512,-1.18993 -0.10244,-2.37987 -0.15514,-3.60585 -0.13899,-10.28499 3.11431,-16.6932 10.08461,-24.12817 4.44171,-2.09023 7.64926,-1.95471 12.49743,-1.36959 z"
       fill="#313b42"
       id="path44"
       style="stroke-width:1.36958" />
    <path
       d="m 642.05512,316.6533 c 5.10662,4.01146 9.1159,10.18787 9.98497,16.65833 0.0678,3.46437 0.11066,6.92582 0.11573,10.3909 0.0336,1.18994 0.0671,2.37987 0.10163,3.60585 0.0453,10.07708 -2.37468,17.3686 -9.26073,24.81297 -4.87505,2.72096 -7.75306,2.82838 -13.26782,2.05437 -6.72901,-3.36451 -9.57477,-6.74475 -12.32623,-13.69581 -3.45203,-10.72335 -3.17172,-25.16954 1.62637,-35.35232 5.69131,-9.41682 12.48522,-11.95604 23.02609,-8.47429 z"
       fill="#313b3e"
       id="path45"
       style="stroke-width:1.36958" />
    <path
       d="m 717.3821,757.65852 c 7.73395,3.63951 10.86274,8.66485 13.69581,16.43497 0.68949,4.14519 0.7101,8.13322 0.59919,12.32624 0.01,1.03456 0.0195,2.06913 0.0294,3.13505 -0.0977,8.74734 -2.04249,16.10552 -6.96293,23.48619 -4.95301,3.25854 -9.69825,3.92815 -15.57899,3.50955 -6.84027,-3.1668 -9.58192,-6.76283 -12.32623,-13.69582 -3.14772,-9.59724 -2.93909,-24.2794 0.1712,-33.81154 4.83617,-8.5439 9.99006,-13.05326 20.37252,-11.38464 z"
       fill="#313b3f"
       id="path46"
       style="stroke-width:1.36958" />
    <path
       d="m 554.40191,315.28372 c 5.83841,3.16497 9.75696,7.45351 12.24063,13.61022 3.2578,12.03345 3.6475,26.26538 -2.39141,37.41738 -2.51094,3.67174 -4.50972,5.78921 -8.47964,7.8644 -5.59429,0.90231 -8.76758,1.24846 -13.69581,-1.56218 -5.55019,-4.3939 -7.87988,-7.88368 -9.58707,-14.8728 -0.47291,-4.51431 -0.56886,-8.98798 -0.5992,-13.52461 -0.0451,-1.17758 -0.09,-2.35515 -0.13641,-3.56841 -0.0851,-10.18686 3.25023,-16.63307 10.15149,-23.99442 4.57358,-2.15227 7.49691,-2.13237 12.49743,-1.36958 z"
       fill="#313b42"
       id="path47"
       style="stroke-width:1.36958" />
    <path
       d="m 716.07137,462.55117 c 4.85189,1.17181 7.97003,3.61892 10.8978,7.49525 6.20346,11.25986 5.64442,25.53927 2.48236,37.66349 -2.03661,5.77195 -4.12944,9.50611 -9.33027,13.01102 -4.23412,1.38528 -7.89187,1.87793 -12.32623,1.36958 -6.68145,-3.83565 -8.90013,-7.35643 -11.50168,-14.68722 -1.43429,-5.42252 -1.41783,-10.72148 -1.33815,-16.29956 -0.0159,-1.12283 -0.0318,-2.24568 -0.0482,-3.40256 0.0438,-9.09344 2.01048,-14.80916 8.35124,-21.5923 4.80137,-3.08012 7.24706,-3.97276 12.81308,-3.5577 z"
       fill="#313b42"
       id="path48"
       style="stroke-width:1.36958" />
    <path
       d="m 320.37468,759.71289 c 5.52936,4.80813 8.75923,10.23381 9.91877,17.55646 0.18061,3.32405 0.17862,6.59318 0.0963,9.92077 0.01,1.11136 0.0195,2.22273 0.0294,3.36777 -0.092,8.77633 -1.94783,15.06772 -6.96292,22.39748 -4.94581,3.38396 -9.6466,3.97688 -15.57899,3.59515 -6.05302,-2.39837 -8.7074,-5.59046 -11.47025,-11.29905 -4.16054,-11.8672 -4.55675,-26.23504 0.77039,-37.74909 5.62635,-9.40358 12.90502,-12.72978 23.19729,-7.78949 z"
       fill="#313b3f"
       id="path49"
       style="stroke-width:1.36958" />
    <path
       d="m 262.1689,172.67873 c 0.88124,-0.001 1.76249,-0.003 2.67042,-0.005 2.94831,-0.004 5.89653,0.003 8.84484,0.008 2.13685,-5.9e-4 4.27371,-10e-4 6.41057,-0.004 5.86845,-0.003 11.73686,0.003 17.6053,0.01 6.32969,0.005 12.65936,0.004 18.98903,0.003 10.96547,-7.1e-4 21.93093,0.004 32.89639,0.011 15.85423,0.011 31.70846,0.0146 47.56271,0.0164 25.72222,0.003 51.44445,0.0123 77.16667,0.0251 24.98728,0.0123 49.97456,0.0223 74.96184,0.0281 2.31019,5.4e-4 2.31019,5.4e-4 4.66704,0.001 7.72632,10e-4 15.45264,0.004 23.17896,0.005 64.10118,0.0143 128.20234,0.0384 192.30352,0.0689 0,0.45197 0,0.90393 0,1.36959 -169.93766,0.45196 -339.87532,0.90392 -514.96261,1.36958 0,5.8755 0,11.75101 0,17.80456 -0.45196,0 -0.90393,0 -1.36958,0 0,-5.87551 0,-11.75101 0,-17.80456 -2.71177,0 -5.42355,0 -8.21749,0 0,-0.45196 0,-0.90393 0,-1.36958 5.84115,-1.11208 11.34988,-1.54008 17.29239,-1.53811 z"
       fill="#445a6c"
       id="path52"
       style="stroke-width:1.36958" />
    <path
       d="m 614.66349,760.39768 c 3.16373,0 6.32747,0 9.58707,0 0,18.07847 0,36.15695 0,54.78326 -6.32747,0 -12.65493,0 -19.17414,0 0,-0.45197 0,-0.90393 0,-1.36959 8.13531,-0.67794 8.13531,-0.67794 16.43498,-1.36958 0,-16.27062 0,-32.54125 0,-49.30493 -3.16374,0 -6.32747,0 -9.58707,0 0.90392,-0.90392 1.80784,-1.80785 2.73916,-2.73916 z"
       fill="#30253c"
       id="path54"
       style="stroke-width:1.36958" />
    <path
       d="m 253.094,193.39097 c 0.90392,0.90393 1.80784,1.80785 2.73916,2.73917 3.60059,0.45484 3.60059,0.45484 7.85436,0.43669 2.46749,0.0408 2.46749,0.0408 4.98484,0.0824 2.67501,0.0237 2.67501,0.0237 5.40405,0.0479 1.83848,0.0256 3.67696,0.0525 5.5154,0.0804 4.84077,0.0704 9.68158,0.12463 14.52259,0.1755 4.93907,0.0548 9.8779,0.12476 14.81679,0.19352 9.69213,0.13257 19.38438,0.24819 29.07685,0.35309 0,0.45196 0,0.90392 0,1.36958 -27.56967,0.45196 -55.13934,0.90392 -83.54446,1.36958 -0.45196,0.90393 -0.90393,1.80785 -1.36958,2.73916 0,-3.16373 0,-6.32746 0,-9.58707 z"
       fill="#171d20"
       id="path55"
       style="stroke-width:1.36958" />
    <path
       d="m 287.33353,526.19926 c 1.35589,0 2.71177,0 4.10875,0 1.44062,1.56774 1.44062,1.56774 2.91036,3.16715 4.98471,4.65962 9.77938,6.05186 16.26378,7.7895 0,0.45196 0,0.90392 0,1.36958 -8.05044,1.0321 -14.24208,-2.05866 -20.54372,-6.84791 -1.73339,-2.97456 -1.73339,-2.97456 -2.73917,-5.47832 z"
       fill="#34a0f0"
       id="path56"
       style="stroke-width:1.36958" />
    <path
       d="m 283.22479,305.69665 c 1.80785,0.45196 3.61569,0.90392 5.47832,1.36958 -0.90392,0 -1.80784,0 -2.73916,0 0,3.6157 0,7.23139 0,10.95665 3.16373,0 6.32747,0 9.58707,0 -3.52274,2.21803 -5.03553,2.79955 -9.24467,2.22557 -1.52537,-0.42372 -1.52537,-0.42372 -3.08156,-0.85599 0,-4.51961 0,-9.03923 0,-13.69581 z"
       fill="#32ec7e"
       id="path57"
       style="stroke-width:1.36958" />
    <path
       d="m 559.88023,501.54679 c 0.45197,0 0.90393,0 1.36958,0 0.45197,5.87551 0.90393,11.75101 1.36959,17.80456 9.4912,0.67794 9.4912,0.67794 19.17414,1.36958 0,0.45196 0,0.90393 0,1.36958 -3.39495,0.26555 -6.79013,0.52099 -10.18627,0.77039 -1.45255,0.11519 -1.45255,0.11519 -2.93443,0.23272 -2.471,0.17735 -4.94726,0.27774 -7.42303,0.36648 -1.36958,-1.36959 -1.36958,-1.36959 -1.50333,-5.99728 0.01,-1.90996 0.0255,-3.81991 0.0482,-5.72977 0.007,-0.97366 0.0123,-1.94732 0.0188,-2.95048 0.0162,-2.41197 0.0408,-4.82389 0.0668,-7.23578 z"
       fill="#30d374"
       id="path58"
       style="stroke-width:1.36958" />
    <path
       d="m 692.72963,746.70187 c 0.45196,1.35588 0.90392,2.71177 1.36958,4.10874 -1.86712,2.60541 -1.86712,2.60541 -4.53674,5.39273 -3.34582,3.52226 -5.82373,6.58188 -7.78949,11.04225 -0.45196,-1.35589 -0.90392,-2.71177 -1.36958,-4.10875 1.51937,-2.95316 1.51937,-2.95316 3.76635,-6.16311 1.09106,-1.58894 1.09106,-1.58894 2.20416,-3.20996 1.97264,-2.59259 3.98632,-4.83524 6.35572,-7.0619 z"
       fill="#33A5F8"
       id="path59"
       style="fill:#359bfb;fill-opacity:1;stroke-width:1.36958" />
    <path
       d="m 473.8534,445.30836 c 2.23245,0.0185 2.23245,0.0185 4.50999,0.0374 1.13873,0.0159 2.27746,0.0318 3.4507,0.0482 -4.93294,3.28863 -8.91414,3.33865 -14.6374,3.59516 -0.96129,0.053 -1.9226,0.10586 -2.91303,0.1605 -2.36677,0.12874 -4.73435,0.24243 -7.10203,0.35309 5.86556,-3.91038 9.78508,-4.26862 16.69177,-4.19434 z"
       fill="#3597e7"
       id="path60"
       style="stroke-width:1.36958" />
    <path
       d="m 236.65902,72.867809 c -2.06959,5.173978 -2.06959,5.173978 -5.56392,6.762309 -0.87567,0.480202 -1.75136,0.960419 -2.65357,1.45518 -1.1117,3.499554 -1.1117,3.499554 -1.36958,6.847907 -0.94159,-2.311169 -0.94159,-2.311169 -1.36958,-5.478326 2.36008,-4.956145 4.84602,-9.58707 10.95665,-9.58707 z"
       fill="#293c4e"
       id="path61"
       style="stroke-width:1.36958" />
    <path
       d="m 532.48861,597.41749 c 0.90392,0.45196 1.80784,0.90393 2.73916,1.36958 -5.42354,4.7456 -5.42354,4.7456 -10.95665,9.58707 0,-4.10874 0,-4.10874 1.79757,-6.00797 2.13997,-1.64956 4.27994,-3.29911 6.41992,-4.94868 z"
       fill="#30F280"
       id="path63"
       style="fill:#359bfb;fill-opacity:1;stroke-width:1.36958" />
    <path
       d="m 364.03009,453.61144 c 0.45196,0 0.90393,0 1.36958,0 0.45196,3.16374 0.90393,6.32747 1.36958,9.58707 1.35589,0.45196 2.71178,0.90393 4.10875,1.36958 0,0.90393 0,1.80785 0,2.73917 -2.25981,-0.45196 -4.51962,-0.90393 -6.84791,-1.36958 0,-4.06766 0,-8.13532 0,-12.32624 z"
       fill="#31d175"
       id="path64"
       style="stroke-width:1.36958" />
    <path
       d="m 242.13735,222.15218 c 0,6.01203 -2.91454,7.9012 -6.84791,12.32624 -0.90392,-0.45196 -1.80785,-0.90393 -2.73916,-1.36958 3.16373,-3.6157 6.32746,-7.23139 9.58707,-10.95666 z"
       fill="#1c2830"
       id="path65"
       style="stroke-width:1.36958" />
  </g>
</svg>
